<svg width="32" height="32" viewBox="0 0 32 32" fill="none" xmlns="http://www.w3.org/2000/svg">
<path d="M16 10.6666C12.3636 10.6666 9.25818 12.9284 8 16.1212C9.25818 19.3139 12.3636 21.5757 16 21.5757C19.6364 21.5757 22.7418 19.3139 24 16.1212C22.7418 12.9284 19.6364 10.6666 16 10.6666ZM16 19.7575C13.9927 19.7575 12.3636 18.1284 12.3636 16.1212C12.3636 14.1139 13.9927 12.4848 16 12.4848C18.0073 12.4848 19.6364 14.1139 19.6364 16.1212C19.6364 18.1284 18.0073 19.7575 16 19.7575ZM16 13.9394C14.7927 13.9394 13.8182 14.9139 13.8182 16.1212C13.8182 17.3284 14.7927 18.303 16 18.303C17.2073 18.303 18.1818 17.3284 18.1818 16.1212C18.1818 14.9139 17.2073 13.9394 16 13.9394Z" fill="#4D4D4D"/>
</svg>
