<svg width="20" height="21" viewBox="0 0 20 21" fill="none" xmlns="http://www.w3.org/2000/svg">
<path d="M19.8692 10.7281C19.87 10.0466 19.812 9.3664 19.6957 8.69482H10.2V12.546H15.6387C15.5274 13.1611 15.2919 13.7475 14.9462 14.2697C14.6006 14.792 14.1521 15.2393 13.6277 15.5848V18.0846H16.8736C18.7741 16.3444 19.8692 13.771 19.8692 10.7281Z" fill="#4285F4"/>
<path d="M10.1999 20.5C12.9172 20.5 15.2051 19.6139 16.8735 18.0862L13.6276 15.5864C12.7242 16.1947 11.5606 16.5419 10.1999 16.5419C7.57353 16.5419 5.34432 14.7836 4.54718 12.4143H1.20337V14.9906C2.04144 16.6467 3.32654 18.0389 4.91518 19.0118C6.50382 19.9847 8.33349 20.4999 10.1999 20.5Z" fill="#34A853"/>
<path d="M4.5471 12.414C4.12568 11.1724 4.12568 9.82793 4.5471 8.58639V6.01013H1.20329C0.498276 7.40333 0.131104 8.94096 0.131104 10.5002C0.131104 12.0594 0.498276 13.597 1.20329 14.9902L4.5471 12.414Z" fill="#FBBC04"/>
<path d="M10.1999 4.45879C11.6359 4.43549 13.0234 4.97429 14.0626 5.95872L16.9365 3.10469C15.1141 1.40488 12.6999 0.471659 10.1999 0.500656C8.33349 0.500741 6.50382 1.01598 4.91518 1.98886C3.32654 2.96174 2.04144 4.35397 1.20337 6.0101L4.54718 8.58636C5.34432 6.21704 7.57353 4.45879 10.1999 4.45879Z" fill="#EA4335"/>
</svg>
